<?xml version="1.0" encoding="UTF-8" standalone="no"?>
<svg
   viewBox="0 0 54 54"
   version="1.1"
   id="svg825"
   width="54"
   height="54"
   xmlns="http://www.w3.org/2000/svg"
   xmlns:svg="http://www.w3.org/2000/svg">
  <defs
     id="defs829" />
  <g
     id="g832"
     transform="matrix(1.0040161,0,0,1.0040161,1.899598,1.899598)">
    <ellipse
       style="fill:#00c800;fill-opacity:1;stroke:#000000;stroke-width:0.49795;stroke-linecap:square;stroke-miterlimit:4;stroke-dasharray:none;stroke-opacity:1;paint-order:markers fill stroke"
       id="path922"
       cx="24.999998"
       cy="25"
       rx="24.651022"
       ry="24.651024" />
    <path
       d="m 11.603249,36.310894 c 0,-10.35 8.256,-18.807 18.642999,-19.141 v -3.529 c 0,-0.254 0.154,-0.48 0.387,-0.576 0.23,-0.096 0.498,-0.041 0.68,0.135 l 6.904,6.938 c 0.24,0.24 0.24,0.633 -0.004,0.875 l -6.904,6.916 c -0.178,0.186 -0.443,0.238 -0.676,0.135 -0.232,-0.09 -0.387,-0.318 -0.387,-0.568 v -3.932 c -6.799,0.266 -12.249999,5.883 -12.249999,12.795 0,0.348 -0.279,0.623 -0.623,0.623 h -5.149 c -0.344,-10e-4 -0.621,-0.329 -0.621,-0.671 z"
       id="01"
       style="fill:#ffffff;fill-opacity:1;stroke:#000000;stroke-width:0.5;stroke-miterlimit:4;stroke-dasharray:none;stroke-opacity:1" />
  </g>
</svg>
