<?xml version="1.0" encoding="UTF-8" standalone="no"?>
<svg
   viewBox="0 0 54 54"
   version="1.1"
   id="svg894"
   sodipodi:docname="w.svg"
   width="54"
   height="54"
   inkscape:version="1.1-alpha (d4b03b3, 2021-03-04)"
   xmlns:inkscape="http://www.inkscape.org/namespaces/inkscape"
   xmlns:sodipodi="http://sodipodi.sourceforge.net/DTD/sodipodi-0.dtd"
   xmlns="http://www.w3.org/2000/svg"
   xmlns:svg="http://www.w3.org/2000/svg">
  <sodipodi:namedview
     id="namedview828"
     pagecolor="#ffffff"
     bordercolor="#666666"
     borderopacity="1.0"
     objecttolerance="10.0"
     gridtolerance="10.0"
     guidetolerance="10.0"
     inkscape:pageshadow="2"
     inkscape:pageopacity="0.0"
     inkscape:pagecheckerboard="0"
     showgrid="false"
     inkscape:zoom="8.867119"
     inkscape:cx="17.762252"
     inkscape:cy="28.983484"
     inkscape:window-width="1440"
     inkscape:window-height="830"
     inkscape:window-x="0"
     inkscape:window-y="23"
     inkscape:window-maximized="1"
     inkscape:current-layer="svg894" />
  <defs
     id="defs898" />
  <g
     id="g1046"
     transform="translate(1.9999998,1.9999998)">
    <ellipse
       style="fill:#ff0000;fill-opacity:1;stroke:#000000;stroke-width:0.49995;stroke-linecap:square;stroke-miterlimit:4;stroke-dasharray:none;stroke-opacity:1;paint-order:markers fill stroke"
       id="path922-2"
       cx="24.999998"
       cy="25"
       inkscape:label="path922"
       rx="24.750023"
       ry="24.750025" />
    <path
       d="m 38.396751,36.310894 c 0,-10.35 -8.256,-18.807 -18.642999,-19.141 v -3.529 c 0,-0.254 -0.154,-0.48 -0.387,-0.576 -0.23,-0.096 -0.498,-0.041 -0.68,0.135 l -6.904,6.938 c -0.24,0.24 -0.24,0.633 0.004,0.875 l 6.904,6.916 c 0.178,0.186 0.443,0.238 0.676,0.135 0.232,-0.09 0.387,-0.318 0.387,-0.568 v -3.932 c 6.799,0.266 12.249999,5.883 12.249999,12.795 0,0.348 0.279,0.623 0.623,0.623 h 5.149 c 0.344,-10e-4 0.621,-0.329 0.621,-0.671 z"
       id="01"
       style="fill:#ffffff;fill-opacity:1;stroke:#000000;stroke-width:0.5;stroke-miterlimit:4;stroke-dasharray:none;stroke-opacity:1" />
  </g>
</svg>
